<svg xmlns="http://www.w3.org/2000/svg" xmlns:xlink="http://www.w3.org/1999/xlink" width="1268" zoomAndPan="magnify" viewBox="0 0 950.88 694.499979" height="926" preserveAspectRatio="xMidYMid meet" version="1.0"><defs><g/><clipPath id="97f855bb79"><path d="M 552 75 L 837.277344 75 L 837.277344 235 L 552 235 Z M 552 75 " clip-rule="nonzero"/></clipPath><clipPath id="40d78f631f"><path d="M 113.296875 168 L 399 168 L 399 327 L 113.296875 327 Z M 113.296875 168 " clip-rule="nonzero"/></clipPath></defs><path fill="#f46109" d="M 796.921875 231.996094 C 547.230469 277.351562 535.292969 -145.664062 284.847656 94.417969 C 448.082031 33.492188 567.335938 472.53125 796.921875 231.996094 " fill-opacity="1" fill-rule="evenodd"/><path fill="#f67d0b" d="M 821.558594 208.863281 C 621.898438 245.148438 612.527344 -93.050781 412.261719 98.953125 C 542.699219 50.121094 638.070312 401.019531 821.558594 208.863281 " fill-opacity="1" fill-rule="evenodd"/><g clip-path="url(#97f855bb79)"><path fill="#faad0e" d="M 837.578125 193.746094 C 698.375 218.992188 691.875 -16.703125 552.21875 117.09375 C 643.359375 83.230469 709.710938 327.695312 837.578125 193.746094 " fill-opacity="1" fill-rule="evenodd"/></g><path fill="#1b70ba" d="M 154.105469 170.3125 C 403.796875 124.957031 415.738281 547.972656 666.183594 307.890625 C 502.945312 368.816406 383.542969 -70.070312 154.105469 170.3125 " fill-opacity="1" fill-rule="evenodd"/><path fill="#2490ea" d="M 129.320312 193.59375 C 328.980469 157.3125 338.503906 495.511719 538.769531 303.507812 C 408.179688 352.1875 312.808594 1.441406 129.320312 193.59375 " fill-opacity="1" fill-rule="evenodd"/><g clip-path="url(#40d78f631f)"><path fill="#6db6f1" d="M 113.296875 208.5625 C 252.5 183.3125 259 419.011719 398.65625 285.210938 C 307.667969 319.230469 241.164062 74.765625 113.296875 208.5625 " fill-opacity="1" fill-rule="evenodd"/></g><g fill="#fbad48" fill-opacity="1"><g transform="translate(34.218603, 536.026387)"><g><path d="M 76.796875 -71.765625 C 76.796875 -61.691406 73.226562 -54.066406 66.09375 -48.890625 C 58.957031 -43.710938 50.21875 -41.125 39.875 -41.125 L 28.390625 -41.125 L 28.390625 0 L 9.234375 0 L 9.234375 -93.859375 C 9.234375 -94.046875 8.90625 -95.421875 8.25 -97.984375 C 7.601562 -100.554688 7.234375 -102.03125 7.140625 -102.40625 L 39.59375 -102.40625 C 50.78125 -102.40625 59.773438 -100 66.578125 -95.1875 C 73.390625 -90.382812 76.796875 -82.578125 76.796875 -71.765625 Z M 56.375 -71.765625 C 56.375 -76.984375 55.019531 -81.082031 52.3125 -84.0625 C 49.613281 -87.050781 45.648438 -88.546875 40.421875 -88.546875 L 28.53125 -88.546875 L 28.53125 -54.703125 L 40.28125 -54.703125 C 45.320312 -54.703125 49.265625 -56.257812 52.109375 -59.375 C 54.953125 -62.5 56.375 -66.628906 56.375 -71.765625 Z M 56.375 -71.765625 "/></g></g></g><g fill="#fbad48" fill-opacity="1"><g transform="translate(114.656186, 536.026387)"><g><path d="M 73.578125 -13.84375 L 69.671875 0.140625 L 58.609375 0.140625 L 58.609375 25.734375 L 41.125 25.734375 L 41.125 0.140625 L 0.28125 0.140625 L 0.28125 -7.96875 L 40.28125 -69.671875 L 58.609375 -69.671875 L 58.609375 -13.84375 Z M 41.125 -13.84375 L 41.125 -46.03125 L 20.28125 -13.84375 Z M 41.125 -13.84375 "/></g></g></g><g fill="#fbad48" fill-opacity="1"><g transform="translate(184.182234, 536.026387)"><g/></g></g><g fill="#fbad48" fill-opacity="1"><g transform="translate(216.357271, 536.026387)"><g><path d="M 69.390625 -30.078125 C 69.390625 -20.191406 65.914062 -12.425781 58.96875 -6.78125 C 52.019531 -1.144531 43.507812 1.671875 33.4375 1.671875 C 20.65625 1.671875 9.695312 -1.03125 0.5625 -6.4375 L 7.140625 -21.96875 C 14.410156 -15.15625 22.566406 -11.75 31.609375 -11.75 C 36.367188 -11.75 40.453125 -13.050781 43.859375 -15.65625 C 47.265625 -18.269531 48.96875 -21.910156 48.96875 -26.578125 C 48.96875 -29.929688 47.847656 -32.914062 45.609375 -35.53125 C 43.367188 -38.144531 40.59375 -40.195312 37.28125 -41.6875 C 33.96875 -43.175781 30.351562 -44.921875 26.4375 -46.921875 C 22.519531 -48.929688 18.90625 -50.960938 15.59375 -53.015625 C 12.28125 -55.066406 9.503906 -57.976562 7.265625 -61.75 C 5.035156 -65.53125 3.921875 -69.894531 3.921875 -74.84375 C 3.921875 -84.445312 7.253906 -91.71875 13.921875 -96.65625 C 20.585938 -101.601562 29.46875 -104.078125 40.5625 -104.078125 C 44.757812 -104.078125 49.609375 -103.238281 55.109375 -101.5625 C 60.617188 -99.882812 64.816406 -97.925781 67.703125 -95.6875 L 58.046875 -83.65625 C 52.828125 -88.320312 46.394531 -90.65625 38.75 -90.65625 C 34.832031 -90.65625 31.453125 -89.628906 28.609375 -87.578125 C 25.765625 -85.523438 24.34375 -82.628906 24.34375 -78.890625 C 24.34375 -75.628906 25.460938 -72.765625 27.703125 -70.296875 C 29.941406 -67.828125 32.710938 -65.84375 36.015625 -64.34375 C 39.328125 -62.851562 42.941406 -61.082031 46.859375 -59.03125 C 50.773438 -56.976562 54.390625 -54.898438 57.703125 -52.796875 C 61.015625 -50.703125 63.789062 -47.695312 66.03125 -43.78125 C 68.269531 -39.863281 69.390625 -35.296875 69.390625 -30.078125 Z M 69.390625 -30.078125 "/></g></g></g><g fill="#fbad48" fill-opacity="1"><g transform="translate(288.541264, 536.026387)"><g><path d="M 100.4375 -51.0625 C 100.4375 -35.675781 96.003906 -23.0625 87.140625 -13.21875 C 78.285156 -3.382812 66.257812 1.53125 51.0625 1.53125 C 35.863281 1.53125 23.992188 -3.429688 15.453125 -13.359375 C 6.921875 -23.296875 2.65625 -35.957031 2.65625 -51.34375 C 2.65625 -66.820312 6.941406 -79.457031 15.515625 -89.25 C 24.097656 -99.039062 35.992188 -103.9375 51.203125 -103.9375 C 66.773438 -103.9375 78.875 -99.0625 87.5 -89.3125 C 96.125 -79.570312 100.4375 -66.820312 100.4375 -51.0625 Z M 79.734375 -50.5 C 79.734375 -55.445312 79.265625 -60.132812 78.328125 -64.5625 C 77.398438 -68.988281 75.910156 -73.226562 73.859375 -77.28125 C 71.804688 -81.34375 68.84375 -84.585938 64.96875 -87.015625 C 61.101562 -89.441406 56.5625 -90.65625 51.34375 -90.65625 C 46.207031 -90.65625 41.726562 -89.507812 37.90625 -87.21875 C 34.082031 -84.9375 31.144531 -81.859375 29.09375 -77.984375 C 27.039062 -74.117188 25.546875 -70.015625 24.609375 -65.671875 C 23.679688 -61.335938 23.21875 -56.75 23.21875 -51.90625 C 23.21875 -46.957031 23.679688 -42.269531 24.609375 -37.84375 C 25.546875 -33.414062 27.039062 -29.171875 29.09375 -25.109375 C 31.144531 -21.054688 34.101562 -17.816406 37.96875 -15.390625 C 41.84375 -12.960938 46.394531 -11.75 51.625 -11.75 C 56.75 -11.75 61.222656 -12.890625 65.046875 -15.171875 C 68.867188 -17.460938 71.804688 -20.539062 73.859375 -24.40625 C 75.910156 -28.28125 77.398438 -32.382812 78.328125 -36.71875 C 79.265625 -41.050781 79.734375 -45.644531 79.734375 -50.5 Z M 79.734375 -50.5 "/></g></g></g><g fill="#fbad48" fill-opacity="1"><g transform="translate(391.641262, 536.026387)"><g><path d="M 67.421875 -88.546875 L 28.8125 -88.546875 L 28.8125 -59.59375 L 58.609375 -59.59375 L 58.609375 -45.75 L 28.8125 -45.75 L 28.8125 0 L 9.375 0 L 9.375 -93.859375 C 9.375 -93.953125 9.207031 -94.648438 8.875 -95.953125 C 8.550781 -97.265625 8.226562 -98.617188 7.90625 -100.015625 C 7.582031 -101.421875 7.421875 -102.21875 7.421875 -102.40625 L 67.421875 -102.40625 Z M 67.421875 -88.546875 "/></g></g></g><g fill="#fbad48" fill-opacity="1"><g transform="translate(462.98592, 536.026387)"><g><path d="M 79.03125 -88.546875 L 50.21875 -88.546875 L 50.21875 0 L 30.21875 0 L 30.21875 -88.546875 L 1.8125 -88.546875 L 1.8125 -102.40625 L 79.03125 -102.40625 Z M 79.03125 -88.546875 "/></g></g></g><g fill="#fbad48" fill-opacity="1"><g transform="translate(543.843152, 536.026387)"><g><path d="M 127.015625 -102.40625 L 98.625 0.28125 L 81.28125 0.28125 C 80.25 -3.257812 78.546875 -9.25 76.171875 -17.6875 C 73.796875 -26.132812 71.765625 -33.503906 70.078125 -39.796875 C 68.398438 -46.085938 66.863281 -52.128906 65.46875 -57.921875 C 64.164062 -63.515625 63.234375 -68.734375 62.671875 -73.578125 C 61.460938 -65.367188 59.878906 -57.675781 57.921875 -50.5 L 44.0625 0.28125 L 26.15625 0.28125 L -1.953125 -102.40625 L 17.34375 -102.40625 C 27.132812 -66.957031 32.546875 -47.226562 33.578125 -43.21875 C 34.785156 -38.1875 35.859375 -32.265625 36.796875 -25.453125 C 37.628906 -31.515625 39.257812 -39.164062 41.6875 -48.40625 L 56.375 -102.40625 L 72.609375 -102.40625 C 73.722656 -98.300781 75.46875 -92.117188 77.84375 -83.859375 C 80.226562 -75.609375 82.304688 -68.195312 84.078125 -61.625 C 85.847656 -55.050781 87.476562 -48.828125 88.96875 -42.953125 C 90.09375 -38.378906 91.070312 -32.546875 91.90625 -25.453125 C 93.03125 -33.472656 94.617188 -41.125 96.671875 -48.40625 L 111.5 -102.40625 Z M 127.015625 -102.40625 "/></g></g></g><g fill="#fbad48" fill-opacity="1"><g transform="translate(668.906106, 536.026387)"><g><path d="M 87.984375 0 L 67.28125 0 L 57.21875 -29.375 L 27 -29.375 L 16.5 0 L 0.28125 0 L 36.515625 -102.40625 L 51.765625 -102.40625 Z M 52.59375 -43.09375 C 48.125 -56.800781 44.582031 -68.457031 41.96875 -78.0625 C 38.789062 -66.40625 35.382812 -54.75 31.75 -43.09375 Z M 52.59375 -43.09375 "/></g></g></g><g fill="#fbad48" fill-opacity="1"><g transform="translate(757.177617, 536.026387)"><g><path d="M 86.3125 0 L 64.484375 0 L 36.09375 -45.609375 L 28.390625 -45.609375 L 28.390625 0 L 9.234375 0 L 9.234375 -93.859375 C 9.234375 -94.046875 8.90625 -95.421875 8.25 -97.984375 C 7.601562 -100.554688 7.234375 -102.03125 7.140625 -102.40625 L 42.25 -102.40625 C 52.601562 -102.40625 60.945312 -100.210938 67.28125 -95.828125 C 73.625 -91.441406 76.796875 -84.304688 76.796875 -74.421875 C 76.796875 -68.640625 74.601562 -63.226562 70.21875 -58.1875 C 65.84375 -53.15625 60.765625 -49.941406 54.984375 -48.546875 Z M 56.515625 -74.5625 C 56.515625 -78.945312 54.972656 -82.347656 51.890625 -84.765625 C 48.816406 -87.191406 44.992188 -88.40625 40.421875 -88.40625 L 28.390625 -88.40625 L 28.390625 -59.3125 L 37.34375 -59.3125 C 50.125 -59.3125 56.515625 -64.394531 56.515625 -74.5625 Z M 56.515625 -74.5625 "/></g></g></g><g fill="#fbad48" fill-opacity="1"><g transform="translate(839.853471, 536.026387)"><g><path d="M 71.625 0 L 9.375 0 L 9.375 -93.859375 L 7.28125 -102.40625 L 71.625 -102.40625 L 71.625 -88.546875 L 28.53125 -88.546875 L 28.53125 -59.59375 L 61.546875 -59.59375 L 61.546875 -45.75 L 28.53125 -45.75 L 28.53125 -13.84375 L 71.625 -13.84375 Z M 71.625 0 "/></g></g></g><g fill="#fbad48" fill-opacity="1"><g transform="translate(35.157125, 659.333031)"><g><path d="M 18.078125 -31.484375 C 22.660156 -31.484375 26.285156 -30.332031 28.953125 -28.03125 C 31.628906 -25.738281 32.96875 -22.46875 32.96875 -18.21875 L 23.46875 -18.21875 C 23.46875 -20.007812 22.992188 -21.429688 22.046875 -22.484375 C 21.109375 -23.535156 19.769531 -24.0625 18.03125 -24.0625 C 16.019531 -24.0625 14.539062 -23.429688 13.59375 -22.171875 C 12.65625 -20.910156 12.1875 -19.15625 12.1875 -16.90625 L 12.1875 -14.03125 C 12.1875 -11.8125 12.65625 -10.0625 13.59375 -8.78125 C 14.539062 -7.507812 15.988281 -6.875 17.9375 -6.875 C 19.863281 -6.875 21.316406 -7.367188 22.296875 -8.359375 C 23.285156 -9.347656 23.78125 -10.742188 23.78125 -12.546875 L 32.96875 -12.546875 C 32.96875 -8.316406 31.671875 -5.078125 29.078125 -2.828125 C 26.484375 -0.578125 22.816406 0.546875 18.078125 0.546875 C 12.796875 0.546875 8.800781 -0.800781 6.09375 -3.5 C 3.382812 -6.207031 2.03125 -10.195312 2.03125 -15.46875 C 2.03125 -20.75 3.382812 -24.738281 6.09375 -27.4375 C 8.800781 -30.132812 12.796875 -31.484375 18.078125 -31.484375 Z M 18.078125 -31.484375 "/></g></g></g><g fill="#fbad48" fill-opacity="1"><g transform="translate(98.426546, 659.333031)"><g><path d="M 3.328125 -30.9375 L 13.265625 -30.9375 L 13.265625 -7.921875 L 29.140625 -7.921875 L 29.140625 0 L 3.328125 0 Z M 3.328125 -30.9375 "/></g></g></g><g fill="#fbad48" fill-opacity="1"><g transform="translate(156.704558, 659.333031)"><g><path d="M 18.703125 -31.484375 C 24.046875 -31.484375 28.171875 -30.117188 31.078125 -27.390625 C 33.984375 -24.660156 35.4375 -20.6875 35.4375 -15.46875 C 35.4375 -10.25 33.984375 -6.273438 31.078125 -3.546875 C 28.171875 -0.816406 24.046875 0.546875 18.703125 0.546875 C 13.367188 0.546875 9.253906 -0.804688 6.359375 -3.515625 C 3.472656 -6.234375 2.03125 -10.21875 2.03125 -15.46875 C 2.03125 -20.71875 3.472656 -24.695312 6.359375 -27.40625 C 9.253906 -30.125 13.367188 -31.484375 18.703125 -31.484375 Z M 18.703125 -24.0625 C 16.578125 -24.0625 14.957031 -23.414062 13.84375 -22.125 C 12.738281 -20.832031 12.1875 -19.09375 12.1875 -16.90625 L 12.1875 -14.03125 C 12.1875 -11.84375 12.738281 -10.101562 13.84375 -8.8125 C 14.957031 -7.519531 16.578125 -6.875 18.703125 -6.875 C 20.835938 -6.875 22.460938 -7.519531 23.578125 -8.8125 C 24.703125 -10.101562 25.265625 -11.84375 25.265625 -14.03125 L 25.265625 -16.90625 C 25.265625 -19.09375 24.703125 -20.832031 23.578125 -22.125 C 22.460938 -23.414062 20.835938 -24.0625 18.703125 -24.0625 Z M 18.703125 -24.0625 "/></g></g></g><g fill="#fbad48" fill-opacity="1"><g transform="translate(222.447189, 659.333031)"><g><path d="M 34.125 -12.453125 C 34.125 -8.222656 32.789062 -5 30.125 -2.78125 C 27.457031 -0.5625 23.664062 0.546875 18.75 0.546875 C 13.832031 0.546875 10.03125 -0.5625 7.34375 -2.78125 C 4.664062 -5 3.328125 -8.222656 3.328125 -12.453125 L 3.328125 -30.9375 L 13.265625 -30.9375 L 13.265625 -12.59375 C 13.265625 -10.851562 13.726562 -9.460938 14.65625 -8.421875 C 15.582031 -7.390625 16.929688 -6.875 18.703125 -6.875 C 20.472656 -6.875 21.828125 -7.398438 22.765625 -8.453125 C 23.710938 -9.503906 24.1875 -10.882812 24.1875 -12.59375 L 24.1875 -30.9375 L 34.125 -30.9375 Z M 34.125 -12.453125 "/></g></g></g><g fill="#fbad48" fill-opacity="1"><g transform="translate(288.189819, 659.333031)"><g><path d="M 16.734375 -30.9375 C 27.554688 -30.9375 32.96875 -25.78125 32.96875 -15.46875 C 32.96875 -5.15625 27.554688 0 16.734375 0 L 3.328125 0 L 3.328125 -30.9375 Z M 13.265625 -7.421875 L 16.546875 -7.421875 C 20.710938 -7.421875 22.796875 -9.65625 22.796875 -14.125 L 22.796875 -16.8125 C 22.796875 -21.28125 20.710938 -23.515625 16.546875 -23.515625 L 13.265625 -23.515625 Z M 13.265625 -7.421875 "/></g></g></g><g fill="#fbad48" fill-opacity="1"><g transform="translate(351.459229, 659.333031)"><g/></g></g><g fill="#fbad48" fill-opacity="1"><g transform="translate(394.71806, 659.333031)"><g><path d="M 16.328125 -31.484375 C 20.285156 -31.484375 23.535156 -30.679688 26.078125 -29.078125 C 28.628906 -27.472656 29.9375 -25.09375 30 -21.9375 L 30 -21.40625 L 20.6875 -21.40625 L 20.6875 -21.578125 C 20.6875 -22.484375 20.351562 -23.234375 19.6875 -23.828125 C 19.03125 -24.429688 18.03125 -24.734375 16.6875 -24.734375 C 15.363281 -24.734375 14.347656 -24.535156 13.640625 -24.140625 C 12.941406 -23.753906 12.59375 -23.273438 12.59375 -22.703125 C 12.59375 -21.898438 13.070312 -21.300781 14.03125 -20.90625 C 14.988281 -20.519531 16.53125 -20.117188 18.65625 -19.703125 C 21.144531 -19.191406 23.191406 -18.65625 24.796875 -18.09375 C 26.398438 -17.539062 27.800781 -16.632812 29 -15.375 C 30.195312 -14.113281 30.8125 -12.40625 30.84375 -10.25 C 30.84375 -6.59375 29.601562 -3.878906 27.125 -2.109375 C 24.65625 -0.335938 21.351562 0.546875 17.21875 0.546875 C 12.394531 0.546875 8.640625 -0.257812 5.953125 -1.875 C 3.273438 -3.5 1.9375 -6.367188 1.9375 -10.484375 L 11.328125 -10.484375 C 11.328125 -8.921875 11.734375 -7.875 12.546875 -7.34375 C 13.359375 -6.820312 14.617188 -6.5625 16.328125 -6.5625 C 17.585938 -6.5625 18.628906 -6.695312 19.453125 -6.96875 C 20.273438 -7.238281 20.6875 -7.796875 20.6875 -8.640625 C 20.6875 -9.390625 20.226562 -9.945312 19.3125 -10.3125 C 18.394531 -10.6875 16.90625 -11.085938 14.84375 -11.515625 C 12.320312 -12.054688 10.234375 -12.617188 8.578125 -13.203125 C 6.929688 -13.785156 5.492188 -14.75 4.265625 -16.09375 C 3.035156 -17.445312 2.421875 -19.273438 2.421875 -21.578125 C 2.421875 -24.972656 3.734375 -27.472656 6.359375 -29.078125 C 8.984375 -30.679688 12.304688 -31.484375 16.328125 -31.484375 Z M 16.328125 -31.484375 "/></g></g></g><g fill="#fbad48" fill-opacity="1"><g transform="translate(455.469271, 659.333031)"><g><path d="M 18.703125 -31.484375 C 24.046875 -31.484375 28.171875 -30.117188 31.078125 -27.390625 C 33.984375 -24.660156 35.4375 -20.6875 35.4375 -15.46875 C 35.4375 -10.25 33.984375 -6.273438 31.078125 -3.546875 C 28.171875 -0.816406 24.046875 0.546875 18.703125 0.546875 C 13.367188 0.546875 9.253906 -0.804688 6.359375 -3.515625 C 3.472656 -6.234375 2.03125 -10.21875 2.03125 -15.46875 C 2.03125 -20.71875 3.472656 -24.695312 6.359375 -27.40625 C 9.253906 -30.125 13.367188 -31.484375 18.703125 -31.484375 Z M 18.703125 -24.0625 C 16.578125 -24.0625 14.957031 -23.414062 13.84375 -22.125 C 12.738281 -20.832031 12.1875 -19.09375 12.1875 -16.90625 L 12.1875 -14.03125 C 12.1875 -11.84375 12.738281 -10.101562 13.84375 -8.8125 C 14.957031 -7.519531 16.578125 -6.875 18.703125 -6.875 C 20.835938 -6.875 22.460938 -7.519531 23.578125 -8.8125 C 24.703125 -10.101562 25.265625 -11.84375 25.265625 -14.03125 L 25.265625 -16.90625 C 25.265625 -19.09375 24.703125 -20.832031 23.578125 -22.125 C 22.460938 -23.414062 20.835938 -24.0625 18.703125 -24.0625 Z M 18.703125 -24.0625 "/></g></g></g><g fill="#fbad48" fill-opacity="1"><g transform="translate(521.211914, 659.333031)"><g><path d="M 3.328125 -30.9375 L 13.265625 -30.9375 L 13.265625 -7.921875 L 29.140625 -7.921875 L 29.140625 0 L 3.328125 0 Z M 3.328125 -30.9375 "/></g></g></g><g fill="#fbad48" fill-opacity="1"><g transform="translate(579.489914, 659.333031)"><g><path d="M 34.125 -12.453125 C 34.125 -8.222656 32.789062 -5 30.125 -2.78125 C 27.457031 -0.5625 23.664062 0.546875 18.75 0.546875 C 13.832031 0.546875 10.03125 -0.5625 7.34375 -2.78125 C 4.664062 -5 3.328125 -8.222656 3.328125 -12.453125 L 3.328125 -30.9375 L 13.265625 -30.9375 L 13.265625 -12.59375 C 13.265625 -10.851562 13.726562 -9.460938 14.65625 -8.421875 C 15.582031 -7.390625 16.929688 -6.875 18.703125 -6.875 C 20.472656 -6.875 21.828125 -7.398438 22.765625 -8.453125 C 23.710938 -9.503906 24.1875 -10.882812 24.1875 -12.59375 L 24.1875 -30.9375 L 34.125 -30.9375 Z M 34.125 -12.453125 "/></g></g></g><g fill="#fbad48" fill-opacity="1"><g transform="translate(645.232557, 659.333031)"><g><path d="M 21.140625 -23.03125 L 21.140625 0 L 11.203125 0 L 11.203125 -23.03125 L 1.03125 -23.03125 L 1.03125 -30.9375 L 31.25 -30.9375 L 31.25 -23.03125 Z M 21.140625 -23.03125 "/></g></g></g><g fill="#fbad48" fill-opacity="1"><g transform="translate(705.983814, 659.333031)"><g><path d="M 3.78125 0 L 3.78125 -30.9375 L 13.71875 -30.9375 L 13.71875 0 Z M 3.78125 0 "/></g></g></g><g fill="#fbad48" fill-opacity="1"><g transform="translate(751.760821, 659.333031)"><g><path d="M 18.703125 -31.484375 C 24.046875 -31.484375 28.171875 -30.117188 31.078125 -27.390625 C 33.984375 -24.660156 35.4375 -20.6875 35.4375 -15.46875 C 35.4375 -10.25 33.984375 -6.273438 31.078125 -3.546875 C 28.171875 -0.816406 24.046875 0.546875 18.703125 0.546875 C 13.367188 0.546875 9.253906 -0.804688 6.359375 -3.515625 C 3.472656 -6.234375 2.03125 -10.21875 2.03125 -15.46875 C 2.03125 -20.71875 3.472656 -24.695312 6.359375 -27.40625 C 9.253906 -30.125 13.367188 -31.484375 18.703125 -31.484375 Z M 18.703125 -24.0625 C 16.578125 -24.0625 14.957031 -23.414062 13.84375 -22.125 C 12.738281 -20.832031 12.1875 -19.09375 12.1875 -16.90625 L 12.1875 -14.03125 C 12.1875 -11.84375 12.738281 -10.101562 13.84375 -8.8125 C 14.957031 -7.519531 16.578125 -6.875 18.703125 -6.875 C 20.835938 -6.875 22.460938 -7.519531 23.578125 -8.8125 C 24.703125 -10.101562 25.265625 -11.84375 25.265625 -14.03125 L 25.265625 -16.90625 C 25.265625 -19.09375 24.703125 -20.832031 23.578125 -22.125 C 22.460938 -23.414062 20.835938 -24.0625 18.703125 -24.0625 Z M 18.703125 -24.0625 "/></g></g></g><g fill="#fbad48" fill-opacity="1"><g transform="translate(817.503463, 659.333031)"><g><path d="M 25.453125 0 L 12.453125 -15.015625 L 12.453125 0 L 3.328125 0 L 3.328125 -30.9375 L 12 -30.9375 L 25 -15.6875 L 25 -30.9375 L 34.125 -30.9375 L 34.125 0 Z M 25.453125 0 "/></g></g></g><g fill="#fbad48" fill-opacity="1"><g transform="translate(883.246106, 659.333031)"><g><path d="M 16.328125 -31.484375 C 20.285156 -31.484375 23.535156 -30.679688 26.078125 -29.078125 C 28.628906 -27.472656 29.9375 -25.09375 30 -21.9375 L 30 -21.40625 L 20.6875 -21.40625 L 20.6875 -21.578125 C 20.6875 -22.484375 20.351562 -23.234375 19.6875 -23.828125 C 19.03125 -24.429688 18.03125 -24.734375 16.6875 -24.734375 C 15.363281 -24.734375 14.347656 -24.535156 13.640625 -24.140625 C 12.941406 -23.753906 12.59375 -23.273438 12.59375 -22.703125 C 12.59375 -21.898438 13.070312 -21.300781 14.03125 -20.90625 C 14.988281 -20.519531 16.53125 -20.117188 18.65625 -19.703125 C 21.144531 -19.191406 23.191406 -18.65625 24.796875 -18.09375 C 26.398438 -17.539062 27.800781 -16.632812 29 -15.375 C 30.195312 -14.113281 30.8125 -12.40625 30.84375 -10.25 C 30.84375 -6.59375 29.601562 -3.878906 27.125 -2.109375 C 24.65625 -0.335938 21.351562 0.546875 17.21875 0.546875 C 12.394531 0.546875 8.640625 -0.257812 5.953125 -1.875 C 3.273438 -3.5 1.9375 -6.367188 1.9375 -10.484375 L 11.328125 -10.484375 C 11.328125 -8.921875 11.734375 -7.875 12.546875 -7.34375 C 13.359375 -6.820312 14.617188 -6.5625 16.328125 -6.5625 C 17.585938 -6.5625 18.628906 -6.695312 19.453125 -6.96875 C 20.273438 -7.238281 20.6875 -7.796875 20.6875 -8.640625 C 20.6875 -9.390625 20.226562 -9.945312 19.3125 -10.3125 C 18.394531 -10.6875 16.90625 -11.085938 14.84375 -11.515625 C 12.320312 -12.054688 10.234375 -12.617188 8.578125 -13.203125 C 6.929688 -13.785156 5.492188 -14.75 4.265625 -16.09375 C 3.035156 -17.445312 2.421875 -19.273438 2.421875 -21.578125 C 2.421875 -24.972656 3.734375 -27.472656 6.359375 -29.078125 C 8.984375 -30.679688 12.304688 -31.484375 16.328125 -31.484375 Z M 16.328125 -31.484375 "/></g></g></g></svg>